{"title":"Can-Can (1960)  Frank Sinatra &amp; Shirley MacLaine","uid":4890901,"size":736221583,"categoryP":"video","categoryS":"movies","magnet":"?xt=urn:btih:7ea78abdfe2fb06f146d11373faa110fceecc47e&amp;dn=Can-Can+%281960%29++Frank+Sinatra+%26+Shirley+MacLaine&amp;tr=udp%3A%2F%2Ftracker.openbittorrent.com%3A80&amp;tr=udp%3A%2F%2Fopen.demonii.com%3A1337&amp;tr=udp%3A%2F%2Ftracker.coppersurfer.tk%3A6969&amp;tr=udp%3A%2F%2Fexodus.desync.com%3A6969","seeders":0,"leechers":0,"uploader":"johnefp","files":-1,"time":1241983973,"description":"Movies : Musical : DVD Rip : English\n\n\nPlot Synopsis by Paul Brenner \n\nCole Porter's Gay Paree musical about the introduction in Montmartre in 1896 of the notorious Can-Can dance, is brought to the screen, filtered through a Rat Pack sensibility. Shirley MacLaine stars as Simone Pistache, the perky and vivacious owner of a Parisian cafe, who, aided by her swingin' boyfriend Francois Dumais (Frank Sinatra), is trying to keep her establishment from being closed down by the Paris authorities because of Simone's insistence on treating her patrons to the Can-Can, the salacious dance outlawed by French law. Maurice Chevalier is a kindly French judge who graciously looked the other way, but another hard-nosed judge, Philippe Forrestier (Louis Jordan), turns up the heat on Simone to close her cafe. That is, until Simone turns up the heat on him, and Phillippe falls hard for Simone. \n\n &lt;a href=&quot;\nhttp://www.imdb.com/title/tt0053690/&quot; rel=&quot;nofollow&quot; target=&quot;_NEW&quot;&gt;\nhttp://www.imdb.com/title/tt0053690/&lt;/a&gt;\n\n\n\nDirector:Walter Lang\n\n\nFrank Sinatra ... FranÃƒÂ§ois Durnais \n\nShirley MacLaine ... Simone Pistache \n\nMaurice Chevalier ... Paul Barriere \nLouis Jourdan ... Philipe Forrestier \nJuliet Prowse ... Claudine \n\n\nVideo\nFormat : MPEG-4 Visual\nFormat settings, BVOP : No\nFormat settings, QPel : No\nFormat settings, GMC : No warppoints\nFormat settings, Matrix : Default\nCodec ID : DX50\nCodec ID/Hint : DivX 5\nDuration : 2h 26mn\nBit rate : 605 Kbps\nWidth : 384 pixels\nHeight : 288 pixels\nDisplay aspect ratio : 4/3\nFrame rate : 23.976 fps\nResolution : 24 bits\nColorimetry : 4:2:0\nScan type : Progressive\nBits/(Pixel*Frame) : 0.228\nStream size : 634 MiB (90%)\nWriting library : DivX 5.0.5 (UTC 2003-04-24)\nAudio\nFormat : MPEG Audio\nFormat version : Version 2\nFormat profile : Layer 3\nCodec ID : 55\nCodec ID/Hint : MP3\nDuration : 2h 26mn\nBit rate mode : Constant\nBit rate : 56.0 Kbps\nChannel(s) : 2 channels\nSampling rate : 24.0 KHz\nResolution : 16 bits\nStream size : 58.7 MiB (8%)\nAlignment : Split accross interleaves\nInterleave, duration : 42 ms (1.00 video frame)\nInterleave, preload duration : 500 ms\n","torrent":{"xt":"urn:btih:7ea78abdfe2fb06f146d11373faa110fceecc47e","amp;dn":"Can-Can+%281960%29++Frank+Sinatra+%26+Shirley+MacLaine","amp;tr":["udp%3A%2F%2Ftracker.openbittorrent.com%3A80","udp%3A%2F%2Fopen.demonii.com%3A1337","udp%3A%2F%2Ftracker.coppersurfer.tk%3A6969","udp%3A%2F%2Fexodus.desync.com%3A6969"],"infoHash":"7ea78abdfe2fb06f146d11373faa110fceecc47e","infoHashBuffer":{"type":"Buffer","data":[126,167,138,189,254,47,176,111,20,109,17,55,63,170,17,15,206,236,196,126]},"announce":[],"urlList":[]}}